<svg width="78" height="97" viewBox="0 0 78 97" fill="none" xmlns="http://www.w3.org/2000/svg">
<g clip-path="url(#clip0_86_116263)">
<path d="M57.715 0C47.695 0.03 36.665 11.07 39.185 21.27C49.315 22.55 59.815 10.5 57.715 0Z" fill="#0C4D47"/>
<path d="M75.5051 68.85C67.5351 63.7 64.0551 56.3 65.5751 46.83C66.5851 40.55 70.4351 36.04 75.4851 32.31C75.1251 31.76 74.8851 31.31 74.5751 30.92C68.6651 23.55 58.2451 20.71 48.4051 24.69C42.2551 27.18 36.7451 27.76 30.6551 24.72C25.9151 22.36 20.7251 22.8 15.8951 24.93C6.64508 29 1.55508 36.44 0.425078 46.22C-1.60492 63.78 4.67508 78.67 16.1951 91.61C20.2851 96.21 25.2951 97.13 30.8151 94.63C37.4451 91.63 43.8751 91.67 50.5851 94.59C57.0551 97.41 61.6951 96.51 66.1151 90.98C70.2651 85.78 73.5251 79.86 77.1551 74.24C78.7251 71.81 77.8851 70.4 75.5051 68.86V68.85Z" fill="#0C4D47"/>
<path d="M57.7151 0C59.8151 10.49 49.3151 22.55 39.1851 21.27C36.6551 11.07 47.6851 0.03 57.7151 0ZM77.1651 74.23C73.5351 79.85 70.2751 85.77 66.1251 90.97C61.7151 96.5 57.0751 97.4 50.5951 94.58C43.8851 91.66 37.4551 91.63 30.8251 94.62C25.3051 97.12 20.2951 96.2 16.2051 91.6C4.67506 78.67 -1.60494 63.78 0.425059 46.22C1.55506 36.44 6.64506 29 15.8951 24.93C20.7251 22.8 25.9251 22.36 30.6551 24.72C36.7551 27.76 42.2551 27.18 48.4051 24.69C58.2351 20.7 68.6551 23.55 74.5751 30.92C74.8851 31.31 75.1251 31.76 75.4851 32.31C70.4351 36.04 66.5751 40.55 65.5751 46.83C64.0551 56.3 67.5351 63.7 75.5051 68.85C77.8851 70.39 78.7351 71.8 77.1551 74.23H77.1651Z" fill="#0C4D47"/>
</g>
<defs>
<clipPath id="clip0_86_116263">
<rect width="77.91" height="96.14" fill="white" transform="translate(0.0450439)"/>
</clipPath>
</defs>
</svg>
