<svg width="96" height="97" viewBox="0 0 96 97" fill="none" xmlns="http://www.w3.org/2000/svg">
<g clip-path="url(#clip0_86_116240)">
<path d="M0 10.3225C0.898043 10.3719 1.79609 10.4214 2.76828 10.479V93.6872H9.31823V48.8296H26.1998V93.6955H30.4181V31.9524H47.2997V93.6955H51.5263V31.9524H68.4078V93.6872H72.6262V48.8214H89.4748V81.0355H86.7147V51.6219H75.5263V93.7037H86.69V89.5936H89.483V93.7202H96.0082V96.5619H0V10.3225ZM44.4243 93.712V34.7446H33.2853V93.712H44.4243ZM54.4346 34.7446V93.712H65.5654V34.7446H54.4346ZM12.2266 51.6219V93.679H23.3656V51.6219H12.2266Z" fill="#0C4D47"/>
<path d="M2.81771 0.570068V7.53017C1.84552 7.58783 0.92276 7.63725 0 7.69491V0.570068C0.939238 0.570068 1.87848 0.570068 2.81771 0.570068Z" fill="#0C4D47"/>
<path d="M90.9002 40.3291V43.1213C87.7694 43.1213 84.9517 42.3059 82.3729 40.6338C79.0855 38.5087 76.6962 35.5023 74.3152 32.4711C71.6952 29.1352 69.1823 25.684 66.3317 22.554C58.4305 13.8889 46.896 13.7818 39.2586 17.4802C35.5263 19.2922 32.5933 22.0928 30.0392 25.2886C27.6746 28.2374 25.4501 31.2933 23.1185 34.2668C21.2071 36.7131 19.0897 38.9617 16.4532 40.6585C13.8909 42.3059 11.0897 43.1049 7.97534 43.1213V40.3208C13.0588 40.3043 16.6427 37.5368 19.757 33.9208C20.4079 33.163 21.034 32.3805 21.652 31.598C23.8847 28.7069 26.0433 25.7499 28.3584 22.9247C31.2174 19.4405 34.5376 16.467 38.7148 14.6137C47.3986 10.7672 59.79 11.2778 68.2349 20.4948C71.4151 23.9625 74.1669 27.8173 77.1164 31.491C77.9568 32.537 78.7972 33.5831 79.6952 34.588C82.6695 37.9157 86.1463 40.2961 90.8919 40.3208L90.9002 40.3291Z" fill="#0C4D47"/>
<path d="M89.4583 86.6776H86.7477V83.9841H89.4583V86.6776Z" fill="#0C4D47"/>
<path d="M62.7312 40.2716H60.0371V37.5781H62.7312V40.2716Z" fill="#0C4D47"/>
<path d="M62.7641 45.9054H60.0618V43.1873H62.7641V45.9054Z" fill="#0C4D47"/>
</g>
<defs>
<clipPath id="clip0_86_116240">
<rect y="0.570068" width="96" height="96" fill="white"/>
</clipPath>
</defs>
</svg>
