<svg width="65" height="58" viewBox="0 0 65 58" fill="none" xmlns="http://www.w3.org/2000/svg">
<path d="M19.6467 36.5041C17.8208 35.3398 16.0379 34.2704 14.3364 33.0787C13.8213 32.7179 13.5056 32.0415 13.1675 31.4666C13.0894 31.3329 13.3286 31.035 13.3573 30.8031C13.3892 30.5502 13.4067 30.2668 13.3254 30.0349C12.8087 28.5806 11.82 27.4372 10.7739 26.3614C10.4502 26.0297 9.91598 25.8734 9.45193 25.7253C8.93844 25.5626 8.61951 25.2969 8.5621 24.7381C8.49512 24.0923 8.173 23.6365 7.58616 23.3305C7.22576 23.1421 6.93713 22.8184 6.59108 22.5962C6.00743 22.2225 5.90218 21.6991 6.076 20.9825C10.8839 21.1709 15.7094 21.3609 20.5811 21.5526C20.6274 20.7795 20.6784 20.0758 20.7103 19.3704C20.8969 15.2637 21.0787 11.157 21.2653 7.05031C21.3657 4.8327 21.4742 2.61509 21.5698 0.395864C21.581 0.123695 21.6352 -0.0228578 21.951 0.00290963C25.3221 0.283131 28.6932 0.5553 32.0644 0.83069C32.1457 0.837131 32.2254 0.874172 32.353 0.909602C32.353 1.10125 32.353 1.28806 32.353 1.47649C32.353 4.11443 32.3594 6.75238 32.345 9.38871C32.3435 9.75268 32.4519 9.93144 32.7868 10.0909C33.9174 10.6288 35.0257 11.2166 36.1467 11.777C36.3094 11.8592 36.496 11.9284 36.6746 11.9381C37.6346 11.9896 38.5978 11.9993 39.5578 12.0701C39.8432 12.0911 40.1988 12.1829 40.3854 12.3761C41.3565 13.3762 42.4919 13.7273 43.8697 13.5952C44.9589 13.4906 46.0704 13.5228 47.1659 13.5872C48.5007 13.6661 49.7621 13.4632 50.9565 12.8625C51.2914 12.695 51.5816 12.7095 51.926 12.8625C53.2129 13.439 54.5094 13.9882 55.8122 14.5277C56.0945 14.6453 56.187 14.7983 56.1854 15.1043C56.1726 17.2913 56.171 19.4767 56.1918 21.6637C56.1934 21.9133 56.2875 22.2467 56.4597 22.3932C57.5425 23.308 58.0528 24.4208 57.7944 25.8525C57.7769 25.9459 57.8168 26.0506 57.8359 26.2004H59C58.9298 27.3535 58.9553 28.4647 58.7704 29.5389C58.5918 30.5728 58.2074 31.5713 57.8805 32.5746C57.8168 32.7695 57.5951 32.9128 57.4436 33.0771C57.4213 33.1012 57.3846 33.1125 57.3511 33.1222C55.1776 33.7583 53.382 34.9951 51.7139 36.5202C51.0107 37.1628 50.0411 37.522 49.1641 37.9487C47.7687 38.6283 46.5201 39.4287 45.4214 40.6044C44.2349 41.8734 43.6545 43.2665 43.3594 44.9269C43.1505 46.1009 43.3658 47.2073 43.5524 48.3185C43.6991 49.1898 44.0659 50.0224 44.3609 50.9549C44.0515 50.9549 43.7023 50.9259 43.3579 50.9597C41.7743 51.1143 40.3088 50.8341 38.947 49.9467C38.2437 49.4877 37.448 49.1801 36.7113 48.7695C36.5215 48.6648 36.3445 48.457 36.26 48.2557C35.7417 47.0092 35.2569 45.7482 34.745 44.5001C34.6493 44.2666 34.517 44.0137 34.3272 43.8624C32.8617 42.6883 31.9256 41.1423 31.1602 39.4529C30.6675 38.3658 30.0471 37.3368 29.5751 36.2416C29.0217 34.9549 27.9948 34.0788 27.0858 33.0964C26.979 32.9804 26.7462 32.9418 26.5723 32.9402C25.043 32.9273 23.5137 32.9402 21.9845 32.9225C21.6528 32.9192 21.5045 33.0384 21.3912 33.3444C21.0117 34.3799 20.6912 35.4525 19.8699 36.2561C19.7615 36.3624 19.6642 36.4832 19.6435 36.5058L19.6467 36.5041Z" fill="#DFDACF"/>
<path d="M40 19.7802V17.65C40.2025 17.6822 40.3934 17.7111 40.5926 17.7432C40.5926 17.0749 40.5976 16.4404 40.5893 15.8058C40.5877 15.6403 40.6289 15.5777 40.8099 15.5793C41.7318 15.5873 42.6553 15.5793 43.5772 15.5857C43.974 15.5889 44.3691 15.6243 44.7658 15.6323C45.1115 15.6403 45.4572 15.6259 45.8029 15.6323C46.0498 15.6371 46.2984 15.65 46.5437 15.6837C46.6095 15.6934 46.6639 15.7914 46.7692 15.8926C46.8548 15.8476 47.0063 15.7914 47.1298 15.6982C47.3043 15.5681 47.4837 15.5183 47.7026 15.5279C48.0335 15.544 48.3661 15.5327 48.692 15.5327C48.8484 15.1584 49.1036 14.9688 49.4526 15.0042C49.581 15.017 49.6978 15.1166 49.823 15.1664C49.9415 15.213 50.0633 15.2532 50.1868 15.2789C50.4535 15.3351 50.7234 15.3817 51 15.4331C50.9934 15.6162 50.9358 15.7046 50.758 15.7175C50.4568 15.7399 50.1571 15.7769 49.8575 15.8171C49.8098 15.8235 49.7308 15.8717 49.7275 15.9054C49.7077 16.1014 49.5727 16.1014 49.4246 16.1062C49.2534 16.111 49.0509 16.0532 48.9966 16.3135C48.99 16.3488 48.8682 16.3617 48.8007 16.3857C48.6937 16.7745 48.804 17.136 48.9752 17.4428C48.7974 17.5263 48.5422 17.5874 48.5389 17.6597C48.529 17.8669 48.6196 18.079 48.6723 18.2926C48.529 18.2782 48.3233 18.2573 48.1175 18.2364C48.1175 18.9095 48.1109 19.5601 48.1241 20.2124C48.1257 20.3136 48.213 20.4148 48.2624 20.5144C48.3052 20.6027 48.3496 20.6911 48.394 20.781C48.3694 20.8067 48.343 20.8325 48.3183 20.8582C48.1389 20.7794 47.9627 20.6863 47.7767 20.6268C47.5858 20.5658 47.38 20.4951 47.1874 20.5096C47.0623 20.5192 46.9536 20.6814 46.8268 20.7602C46.6935 20.8437 46.5453 20.9064 46.4087 20.9851C46.3313 21.03 46.249 21.0766 46.1898 21.1409C45.9544 21.3963 45.6943 21.5939 45.3222 21.6277C45.2317 21.6357 45.1411 21.7562 45.0736 21.8413C44.965 21.9763 44.8547 22.0726 44.695 21.9281C44.5732 21.8172 44.3246 21.8879 44.2999 21.6357C44.2835 21.4686 44.216 21.3064 44.1847 21.1907C43.9937 21.218 43.8242 21.2164 43.6727 21.2678C43.3764 21.369 43.0438 21.3417 42.7706 21.5505C42.6422 21.6485 42.4051 21.7192 42.2668 21.6694C42.0792 21.6036 41.9689 21.4172 41.9755 21.1666C41.987 20.7104 41.9442 20.2509 41.9228 19.777H40.0016L40 19.7802Z" fill="#BEA967"/>
</svg>
