<svg width="135" height="90" viewBox="0 0 135 90" fill="none" xmlns="http://www.w3.org/2000/svg">
<g clip-path="url(#clip0_86_116279)">
<path d="M0 59.4772H2.69061C2.26069 58.7299 1.96332 58.2032 1.65879 57.68C1.29336 57.043 0.641305 56.4274 0.598312 55.769C0.146891 48.8758 0.0895677 41.9897 1.8845 35.2352C2.59746 32.5484 3.67228 30.0217 5.67501 27.9897C7.2514 26.3918 9.12157 25.5448 11.4145 25.5697C15.4809 25.6124 19.5473 25.5982 23.6136 25.5662C24.2585 25.559 24.95 25.4381 25.5375 25.1818C28.891 23.7263 32.2336 22.2494 35.5369 20.6872C36.0779 20.4309 36.6224 19.7726 36.7801 19.1961C37.7438 15.7299 38.5284 12.2174 39.5316 8.76545C39.7896 7.87222 40.4488 6.82239 41.2226 6.43449C41.9213 6.08218 43.254 6.23521 43.8918 6.71563C44.5331 7.19606 45.1135 8.45229 44.9451 9.19962C43.9168 13.8366 42.7345 18.4416 41.4268 23.0075C41.2011 23.7904 40.2159 24.5484 39.4026 24.9363C35.6193 26.737 31.7894 28.4345 27.938 30.0893C27.0029 30.4914 26.7377 30.9932 26.7413 31.9754C26.7736 49.2744 26.7664 66.5733 26.7592 83.8722C26.7592 84.4914 26.7592 85.1249 26.6446 85.7299C26.2218 87.9149 24.4376 89.2672 22.2128 89.1498C20.1599 89.043 18.4724 87.406 18.279 85.2886C18.2181 84.6267 18.2539 83.9541 18.2539 83.2886C18.2539 73.9042 18.2539 64.5235 18.2539 55.1391C18.2539 54.8758 18.2252 54.616 18.2037 54.2637H16.6596C16.6596 54.8366 16.6596 55.3598 16.6596 55.8829C16.6596 65.4879 16.6668 75.0929 16.6524 84.6978C16.6488 87.4701 14.7536 89.2957 12.1167 89.1462C10.1462 89.0359 8.48385 87.4772 8.27605 85.5163C8.21515 84.9434 8.2259 84.3633 8.2259 83.7832C8.2259 67.8651 8.2259 51.9434 8.2259 36.0252C8.2259 35.5377 8.2259 35.0501 8.2259 34.5626C8.11483 34.5306 8.00377 34.495 7.8927 34.463C7.59176 35.4238 7.23707 36.3704 7.00061 37.3491C5.64277 42.9469 5.75741 48.6409 5.96163 54.3313C6.01895 55.89 5.91863 57.2388 4.31716 58.0786C4.01622 58.2352 3.9983 58.9292 3.80842 59.5057C4.74351 59.5555 5.39914 59.5911 6.15867 59.6338V73.3669H0V59.4879V59.4772Z" fill="#0C4D47"/>
<path d="M51.007 56.189C49.2228 50.2602 46.2133 47.6338 41.3623 47.737C36.798 47.8367 33.5986 50.8082 32.2873 56.1997H29.2134V39.2032C31.9685 38.7584 34.72 38.2602 37.4894 37.89C38.6538 37.7335 39.5208 37.3349 40.3305 36.431C42.9172 33.5449 45.6473 30.7904 48.2591 27.9256C49.5739 26.4844 51.1861 25.8438 53.0599 25.584C64.6284 23.9719 76.2006 23.794 87.7906 25.3242C90.2878 25.6552 92.4589 26.4772 94.3363 28.2851C97.3851 31.221 100.602 33.9826 103.795 36.7691C104.289 37.1997 104.998 37.5199 105.65 37.6125C113.249 38.6908 120.873 39.6552 128.239 41.915C129.594 42.3313 130.891 42.9541 132.162 43.584C133.32 44.157 133.696 45.1107 133.227 46.3705C132.582 48.1071 131.98 49.8616 131.335 51.6801C131.758 51.7086 132.062 51.7406 132.37 51.7477C134.545 51.7904 135.34 52.7797 134.864 54.9078C134.663 55.8046 134.058 56.2708 133.133 56.2708C129.741 56.2779 126.348 56.2708 122.84 56.2708C122.4 53.2459 121.06 50.7762 118.437 49.1356C116.678 48.036 114.747 47.5876 112.68 47.7619C108.32 48.132 105.102 51.3242 104.242 56.189H51.0034H51.007ZM69.9309 37.2673V26.7406C63.894 26.9221 57.9718 27.189 52.1176 28.2851C51.7379 28.3562 51.3008 28.5093 51.0392 28.7691C48.32 31.5021 45.6329 34.2637 42.6951 37.2673H69.9309ZM77.9131 26.8438H72.7469V37.189C72.8902 37.2495 72.969 37.3135 73.0478 37.3135C78.232 37.3278 83.4126 37.3527 88.5968 37.3064C89.0267 37.3029 89.5462 36.9078 89.8579 36.552C90.6676 35.6338 91.3841 34.6338 92.183 33.6125C92.6345 33.9648 92.9712 34.2317 93.3474 34.5271C92.6846 35.431 92.0648 36.2744 91.3411 37.2566H99.5097C97.2168 34.8936 94.8486 32.6125 92.6703 30.1676C90.5672 27.8082 87.7763 27.8616 84.9531 27.4701C86.5904 30.6054 86.2358 33.1178 84.0288 34.737C82.0619 36.1747 79.3892 35.9826 77.6516 34.2744C75.6739 32.3313 75.7026 29.8011 77.9167 26.8402L77.9131 26.8438ZM75.4554 41.7441C77.2432 41.7441 79.013 41.7762 80.7829 41.7157C81.0874 41.705 81.3812 41.3029 81.6786 41.0822C81.3597 40.8367 81.048 40.4025 80.7184 40.3847C79.2566 40.3064 77.7877 40.3883 76.326 40.3384C75.3801 40.3064 75.1329 40.6872 75.459 41.7441H75.4554ZM51.7522 40.3527C49.8677 40.3527 48.0477 40.3242 46.2312 40.3847C45.9769 40.3918 45.7332 40.8118 45.486 41.0395C45.7297 41.2708 45.9661 41.7014 46.2169 41.7086C48.0369 41.7655 49.8569 41.7406 51.7522 41.7406V40.3562V40.3527Z" fill="#0C4D47"/>
<path d="M25.1936 15.9435C25.2043 20.1748 21.6646 23.6873 17.4334 23.6481C13.2238 23.609 9.78793 20.1712 9.7736 15.9791C9.75927 11.7406 13.2847 8.23885 17.5302 8.27444C21.7327 8.30647 25.1864 11.762 25.1936 15.9399V15.9435Z" fill="#0C4D47"/>
<path d="M113.547 64.3206C109.412 64.3242 106.148 61.0857 106.141 56.9719C106.134 52.8615 109.394 49.5982 113.518 49.5911C117.617 49.584 120.945 52.8758 120.949 56.9434C120.949 61.0252 117.652 64.3135 113.547 64.3171V64.3206ZM113.525 62.6551C116.635 62.6551 119.247 60.0573 119.25 56.9612C119.25 53.8473 116.66 51.2672 113.532 51.2672C110.398 51.2672 107.829 53.8224 107.822 56.9541C107.814 60.0537 110.415 62.6551 113.525 62.6587V62.6551Z" fill="#0C4D47"/>
<path d="M41.6311 64.3207C37.5038 64.3136 34.2436 61.0609 34.2507 56.947C34.2579 52.8403 37.5289 49.5912 41.6562 49.5947C45.7441 49.5947 49.0724 52.9115 49.0652 56.9755C49.0581 61.0396 45.7297 64.3278 41.6275 64.3207H41.6311ZM47.3491 56.9328C47.3312 53.8047 44.7409 51.246 41.6132 51.2709C38.4604 51.2922 35.9275 53.8403 35.9382 56.9826C35.9454 60.0929 38.5464 62.6695 41.6634 62.6588C44.7767 62.6445 47.367 60.0396 47.3491 56.9364V56.9328Z" fill="#0C4D47"/>
<path d="M41.5701 5.28511C38.1988 6.5876 38.8866 9.71927 37.7796 11.8972C35.5332 9.71216 33.2869 7.58048 31.1265 5.35984C30.8685 5.09294 30.8757 4.16767 31.1373 3.8723C32.2479 2.60895 33.4409 1.39543 34.7343 0.320696C35.0639 0.0466748 36.0706 0.117849 36.4253 0.423899C38.1343 1.90077 39.725 3.51287 41.5737 5.28867L41.5701 5.28511Z" fill="#0C4D47"/>
<path d="M113.479 59.2139C112.207 59.1855 111.239 58.1499 111.279 56.8687C111.318 55.6445 112.289 54.7015 113.518 54.6944C114.768 54.6873 115.832 55.7406 115.818 56.9755C115.804 58.2104 114.725 59.2424 113.479 59.2139Z" fill="#0C4D47"/>
<path d="M43.9312 56.9008C43.9634 58.125 42.9065 59.2033 41.6669 59.214C40.4416 59.2246 39.4564 58.2958 39.3991 57.0752C39.3381 55.7798 40.2732 54.7478 41.5558 54.6944C42.8026 54.6446 43.8954 55.6588 43.9312 56.8972V56.9008Z" fill="#0C4D47"/>
</g>
<defs>
<clipPath id="clip0_86_116279">
<rect width="135" height="89" fill="white" transform="translate(0 0.149902)"/>
</clipPath>
</defs>
</svg>
