<svg width="121" height="46" viewBox="0 0 121 46" fill="none" xmlns="http://www.w3.org/2000/svg">
<g clip-path="url(#clip0_86_116313)">
<path d="M0.5 15.3949C1.58 12.3049 3.85 10.9649 7.02 10.9049C7.48 10.9049 7.95 10.7549 8.41 10.7249C13.65 10.3349 18.63 9.07485 23.24 6.47485C25.28 5.32485 27.41 4.35485 29.5 3.31485C33.14 1.49485 36.99 0.354854 41.07 0.294854C47.43 0.204854 53.8 0.194854 60.16 0.304854C64.99 0.384854 69.41 1.97485 73.47 4.58485C77.74 7.32485 82.01 10.0549 86.32 12.7349C86.94 13.1249 87.75 13.3749 88.49 13.4049C96.04 13.7149 103.51 14.5249 110.75 16.8049C112.2 17.2649 113.63 17.7949 115 18.4349C118.51 20.0749 120.31 22.9149 120.45 26.7649C120.53 29.0249 120.51 31.2949 120.45 33.5549C120.35 36.7349 118.4 39.0249 115.58 39.3849C114.33 39.5449 113.43 39.0049 113.24 37.9949C113.05 36.9749 113.69 36.1449 114.96 35.9549C116.17 35.7649 116.69 35.0049 116.89 33.9249C116.95 33.5849 116.96 33.2249 116.96 32.8749C116.96 30.7349 116.96 28.5949 116.96 26.3049C115.72 26.3049 114.6 26.3249 113.48 26.3049C112.09 26.2749 111.32 25.6149 111.34 24.5149C111.36 23.4249 112.12 22.8249 113.54 22.7949C114 22.7949 114.45 22.7949 114.91 22.7949C114.94 22.6949 114.97 22.5949 115.01 22.4949C114.43 22.1549 113.89 21.7649 113.28 21.4949C108.48 19.4049 103.41 18.2449 98.24 17.7849C92.73 17.2949 87.18 17.0049 81.65 16.9449C70.09 16.8249 58.53 16.9049 46.98 16.9049C46.67 16.9049 46.36 16.9049 46.04 16.9049C44.55 16.8749 43.74 16.2649 43.73 15.1649C43.72 14.0549 44.54 13.4049 46.01 13.3949C47.3 13.3849 48.59 13.3949 49.88 13.3949C50.27 13.3949 50.65 13.3949 51.13 13.3949V3.88485C51 3.83485 50.89 3.76485 50.78 3.76485C46.53 3.88485 42.28 3.89485 38.04 4.19485C35.42 4.37485 35.43 4.57485 34.85 7.07485C34.39 9.08485 33.94 11.0949 33.45 13.2649C34.03 13.3149 34.51 13.3749 34.99 13.3849C36.04 13.4149 37.1 13.3549 38.15 13.4449C39.08 13.5249 39.64 14.1149 39.67 15.0749C39.7 16.0249 39.24 16.7449 38.3 16.8249C33.84 17.1849 29.52 16.9849 26.17 13.3749C25.27 12.4049 24.4 10.9749 23.3 10.7249C22.24 10.4849 20.9 11.4949 19.69 11.9849C16.21 13.4049 12.52 13.7749 8.84 14.2249C7.87 14.3449 6.9 14.4349 5.94 14.5949C4.61 14.8249 4.06 15.4849 4.03 16.8249C4.01 17.5149 4.03 18.2149 4.03 18.9049C5.53 19.2249 7.74 18.4149 7.7 20.8249C7.66 23.1249 5.51 22.3149 4.08 22.5949C4.08 24.5649 3.94 26.5149 4.12 28.4349C4.27 30.0349 5.38 31.0749 6.94 31.5349C9.11 32.1749 11.28 32.7749 13.6 33.4349C14.04 29.4649 15.78 26.3049 19.26 24.2549C21.54 22.9149 24.02 22.5049 26.6 22.9149C29.63 23.3949 32.05 24.9449 33.86 27.4249C35.68 29.9149 36.18 32.7449 35.83 35.8249H86.94C86.94 35.1249 86.94 34.4449 86.94 33.7549C87 27.5749 92.11 22.6149 98.26 22.7649C104.57 22.9149 109.48 28.1349 109.2 34.3849C108.99 39.0949 105.72 43.2749 101.21 44.5849C96.62 45.9249 91.77 44.2549 89 40.3249C88.51 39.6349 88.02 39.3949 87.19 39.3949C70.01 39.4149 52.83 39.4149 35.65 39.3949C34.81 39.3949 34.34 39.6849 33.85 40.3449C31.4 43.6749 28.06 45.3249 23.93 44.9649C19.51 44.5849 16.36 42.2549 14.57 38.1949C14.25 37.4649 13.84 37.1049 13.11 36.9149C11.23 36.4149 9.38 35.7449 7.48 35.3349C3.86 34.5649 1.44 32.5949 0.51 28.9349V15.3449L0.5 15.3949ZM80.2 13.3249C80.23 13.2549 80.25 13.1749 80.28 13.1049C77.7 11.4549 75.07 9.87485 72.54 8.14485C68.01 5.05485 63.04 3.55485 57.56 3.73485C56.65 3.76485 55.73 3.73485 54.79 3.73485V13.3149H80.2V13.3249ZM32.4 33.9149C32.4 29.7049 29.04 26.3349 24.84 26.3149C20.6 26.2949 17.15 29.7249 17.16 33.9449C17.16 38.0949 20.59 41.5349 24.75 41.5749C28.94 41.6149 32.41 38.1449 32.4 33.9149ZM97.98 26.3149C93.72 26.3449 90.39 29.7649 90.43 34.0449C90.48 38.2049 93.95 41.6249 98.1 41.5749C102.27 41.5249 105.68 38.0849 105.68 33.9249C105.68 29.7049 102.22 26.2849 97.98 26.3149ZM27.11 8.44485C28.06 9.56485 29.04 10.7249 30.11 11.9849C30.53 10.0949 30.92 8.33485 31.37 6.33485C29.66 7.18485 28.17 7.91485 27.11 8.44485Z" fill="#0C4D47"/>
<path d="M61.42 31.925C55.14 31.925 48.85 31.925 42.57 31.925C42.14 31.925 41.7 31.925 41.29 31.835C40.41 31.635 39.96 30.995 39.98 30.135C40 29.275 40.46 28.655 41.36 28.495C41.78 28.415 42.21 28.425 42.64 28.425C55.17 28.425 67.7 28.425 80.23 28.425C82.03 28.425 82.88 28.985 82.9 30.155C82.92 31.345 82.05 31.935 80.28 31.935C74 31.935 67.71 31.935 61.43 31.935L61.42 31.925Z" fill="#0C4D47"/>
<path d="M27.88 32.2449C27.88 33.7249 24.53 37.1049 23.43 36.9449C22.89 36.8649 22.2 36.4749 21.98 36.0249C21.75 35.5649 21.78 34.6849 22.09 34.3149C23.02 33.1749 24.08 32.1149 25.22 31.1949C25.59 30.8949 26.45 30.9249 26.93 31.1449C27.41 31.3649 27.69 32.0149 27.88 32.2549V32.2449Z" fill="#0C4D47"/>
<path d="M96.77 30.8547C97.84 30.8847 101.1 34.1747 101.1 35.2347C101.1 36.5747 99.62 37.5447 98.56 36.7347C97.31 35.7647 96.16 34.6147 95.21 33.3647C94.42 32.3247 95.44 30.8247 96.77 30.8647V30.8547Z" fill="#0C4D47"/>
</g>
<defs>
<clipPath id="clip0_86_116313">
<rect width="120" height="44.85" fill="white" transform="translate(0.5 0.224854)"/>
</clipPath>
</defs>
</svg>
