<svg width="65" height="58" viewBox="0 0 65 58" fill="none" xmlns="http://www.w3.org/2000/svg">
<g clip-path="url(#clip0_144_7961)">
<path d="M37.2947 49.6135C37.0628 48.0302 36.6054 47.7794 35.2581 47.9203C34.4999 47.9991 33.7062 47.6053 32.9313 47.4043C32.8414 47.3815 32.737 47.2509 32.7015 47.1411C32.2649 45.7795 31.3501 45.5474 30.2869 45.5806C29.7271 45.5992 29.1652 45.5142 28.6033 45.4707C27.9684 45.421 27.3313 45.4003 26.7026 45.2966C26.2597 45.2241 25.8128 45.0852 25.3971 44.8842C24.9731 44.679 24.6618 44.3474 24.9271 43.676C25.0107 43.4667 24.9459 43.1641 24.9229 42.9071C24.8686 42.2957 24.7976 41.6844 24.7329 41.073C24.7913 41.0398 24.8498 41.0046 24.9083 40.9714C24.5261 40.8554 24.0665 40.8554 23.7887 40.5839C23.5861 40.387 23.6258 39.8316 23.5276 39.2679C22.9595 38.8493 22.1846 38.3166 21.4472 37.7156C21.1527 37.4752 20.9125 37.1146 20.6953 36.7664C20.0749 35.7737 19.5611 34.694 18.5522 34.1262C17.8525 33.7324 17.6457 32.8868 17.6749 32.006C17.6812 31.7988 17.8963 31.5439 18.0697 31.4133C18.454 31.1232 18.642 30.7667 18.4728 30.2362C18.3162 29.7409 18.0196 29.4632 17.56 29.5937C16.9898 29.7533 16.5846 29.4632 16.1501 29.0383C15.2102 28.1202 14.548 27.0197 14.2368 25.6022C14.1742 25.3141 13.9987 25.0426 13.8295 24.8126C12.3507 22.792 10.876 20.7651 9.36164 18.7859C9.01909 18.3362 8.4969 18.0937 8.10421 17.6896C7.92875 17.5093 7.77418 17.1694 7.77001 16.8979C7.76374 16.3011 7.77418 15.7622 7.50682 15.1882C7.33346 14.8151 7.38776 14.2141 7.47549 13.754C7.64259 12.8795 7.51935 12.1417 6.96583 11.5552C6.30161 10.8526 5.64782 10.1148 4.91467 9.53038C3.98934 8.79259 3.79091 7.16365 4.69117 6.3927C5.48281 5.71294 5.80866 4.95028 5.57054 3.78971C5.49952 3.44776 5.58307 2.97731 5.73764 2.67059C6.16166 1.82918 6.03007 1.12662 5.50787 0.467583C5.1319 -0.00700678 4.97524 -0.531335 5.13608 -1.17794C5.30735 -1.86184 5.57889 -2.23488 6.27863 -2.23074C13.5496 -2.19551 20.8206 -2.21002 28.0895 -2.21002C28.2817 -2.21002 28.4738 -2.21002 28.7579 -2.21002C28.7579 -1.87428 28.7579 -1.59864 28.7579 -1.32508C28.7308 4.32647 28.712 9.9801 28.666 15.6317C28.6618 16.2161 28.7955 16.5746 29.2028 16.9166C38.667 24.8375 48.1228 32.777 57.5787 40.7103C57.7207 40.8284 57.8732 40.9984 58.0257 41.0087C58.4601 41.0378 58.504 41.3279 58.4727 41.7507C58.458 41.9496 58.4539 42.2232 58.5479 42.3475C59.2831 43.3133 60.0142 44.2915 60.81 45.1826C61.4345 45.8811 61.4617 46.1401 60.7557 46.7142C60.4152 46.9898 60.0351 47.2281 59.7656 47.5846C59.4377 48.0177 58.8695 48.4426 59.3917 49.2094C59.4648 49.3172 59.4669 49.6011 59.4001 49.7254C59.0053 50.4736 58.5792 51.1989 58.0967 52.0507C58.1426 52.2787 58.197 52.689 58.3139 53.0724C58.3829 53.2983 58.5228 53.6175 58.6774 53.661C59.3082 53.8392 59.2518 54.4506 59.258 54.9584C59.2664 55.5573 58.9322 55.9262 58.4413 55.9904C57.1275 56.1604 55.8137 56.3262 54.4957 56.4464C51.3813 56.7344 48.267 57.0059 45.1505 57.2546C44.9061 57.2733 44.6137 57.1427 44.4048 56.9707C44.0059 56.6412 43.6529 56.2329 43.2205 55.7977C43.2205 55.5594 43.233 55.1718 43.2184 54.7863C43.1558 53.2279 42.5062 52.1357 41.3594 51.458C40.4654 50.9275 39.5756 50.3762 38.6566 49.914C38.2534 49.713 37.7814 49.713 37.2926 49.6115L37.2947 49.6135Z" fill="#DFDACF"/>
<path d="M29.7439 45.9124C29.3826 45.7943 29.0901 45.6989 28.7246 45.5787C29.228 45.0731 29.6646 44.5259 30.4207 44.6503C30.5523 44.4078 30.6985 44.2192 30.757 44.0058C30.7967 43.8628 30.7382 43.6762 30.6797 43.5249C30.2097 42.3146 29.7293 41.1085 29.2531 39.9002C29.2092 39.7904 29.18 39.6764 29.1277 39.5127H36.9585C36.9627 39.606 36.9711 39.7137 36.9752 39.8215C37.0191 41.0297 37.1361 42.2421 37.0818 43.4441C37.0462 44.2089 36.758 44.9632 36.5763 45.7217C36.5658 45.7632 36.5032 45.7922 36.4697 45.8316C36.3319 45.9994 36.1982 46.1715 36.0604 46.3414C36.0854 46.3746 36.1105 46.4077 36.1376 46.4409C35.8473 46.4409 35.5549 46.4243 35.2666 46.4512C35.1705 46.4595 35.0724 46.5694 34.9993 46.6543C34.922 46.7455 34.9032 46.9072 34.8134 46.9569C34.4666 47.1538 34.358 47.4833 34.2619 47.8253C34.2181 47.9786 34.1554 48.0719 33.9799 47.9786C33.629 47.79 33.3972 48.0802 33.1173 48.1859C33.0108 48.2273 32.8833 48.2667 32.7789 48.2418C32.641 48.2107 32.5241 48.0947 32.3862 48.0532C32.1502 47.9786 32.1356 47.8646 32.2275 47.6533C32.2922 47.5061 32.286 47.3237 32.288 47.1559C32.288 47.0709 32.24 46.9859 32.2087 46.901C31.6677 45.4689 31.1246 45.4813 29.746 45.9062L29.7439 45.9124Z" fill="#BEA967"/>
</g>
<defs>
<clipPath id="clip0_144_7961">
<rect width="65" height="58" fill="white"/>
</clipPath>
</defs>
</svg>
