<svg width="65" height="58" viewBox="0 0 65 58" fill="none" xmlns="http://www.w3.org/2000/svg">
<path d="M53.6824 24.6781C53.6037 24.6575 53.525 24.6398 53.4478 24.6148C53.3097 24.5692 53.1671 24.4707 53.0349 24.481C52.6295 24.5118 52.2478 24.1559 52.3726 23.769C52.4617 23.4939 52.3384 23.3924 52.1646 23.2747C52.077 23.2159 51.9805 23.1718 51.8424 23.0968C51.9003 23.4616 51.9285 23.7852 52.0072 24.0941C52.1543 24.6692 52.3072 25.2459 52.5018 25.8048C52.6904 26.3447 52.9176 26.8743 53.1597 27.3935C53.6854 28.5203 54.2304 29.6382 54.771 30.7591C54.9433 31.1166 55.1482 31.4593 55.3056 31.8227C55.4631 32.1889 55.5789 32.5729 55.7155 32.9465C55.919 33.504 56.1417 34.0556 56.3244 34.619C56.4165 34.9059 56.4388 35.2162 56.5056 35.5913C57.0432 35.8061 57.2303 36.4401 57.5511 36.9652C57.606 37.055 57.5615 37.2006 57.5912 37.3124C57.6343 37.4742 57.713 37.6257 57.762 37.7846C57.8303 38.0067 57.8956 38.2303 57.9461 38.4568C58.1793 39.5174 58.1139 40.5795 58.0204 41.6547C57.8971 43.064 57.8882 44.482 57.8273 45.8971C57.8214 46.0265 57.7991 46.1545 57.7204 46.2839C57.6892 46.1957 57.6565 46.1089 57.6016 45.9559C57.5244 46.1619 57.41 46.3222 57.4189 46.4752C57.4382 46.787 57.3551 47.0224 57.0952 47.1974C57.0788 47.2092 57.0566 47.218 57.0491 47.2342C56.8887 47.6137 56.715 47.9903 56.5784 48.3786C56.5026 48.5919 56.4774 48.8243 56.4581 49.0509C56.4462 49.1936 56.4714 49.3436 56.5086 49.4833C56.6021 49.8364 56.6482 50.1497 56.3363 50.4571C56.0794 50.7116 51.8958 52.1458 51.4696 52.2944C51.287 52.3591 51.1488 52.3459 51.0449 52.1635C50.9469 51.9929 50.8192 51.8384 50.7315 51.6634C50.5444 51.2882 50.7508 51.0338 51.0479 50.8116C51.3553 51.0632 51.6746 51.325 52.0533 51.6354C52.1691 51.4486 52.3072 51.3044 52.3503 51.1353C52.3859 50.997 51.9864 50.6954 51.8023 50.6807C51.3998 50.6498 51.1087 50.4792 50.8607 50.1409C50.4835 49.626 50.2786 49.0391 50.0038 48.4801C49.8301 48.1271 49.5732 47.8138 49.3593 47.4784C49.2865 47.3636 49.1885 47.2386 49.1841 47.1151C49.1737 46.8679 49.0356 46.7694 48.8455 46.6546C48.2856 46.3163 47.7212 46.0559 47.0322 46.153C46.8896 46.1736 46.7233 46.0206 46.5302 45.9309C46.6223 45.8559 46.6772 45.8118 46.7292 45.7706C46.2361 45.1175 45.801 44.4437 45.7862 43.5803C45.7802 43.2684 45.7594 42.936 45.6436 42.6535C45.5381 42.3991 45.3332 42.1387 45.1015 41.9916C44.6649 41.7136 44.6411 41.6709 44.9723 41.2679C45.106 41.1046 45.155 40.8736 45.2575 40.6824C45.3436 40.5236 45.452 40.3779 45.5946 40.1602C45.3495 40.25 45.1981 40.3132 45.1624 40.553C45.0986 40.9825 44.5119 41.3664 44.0887 41.2355C44.059 40.6692 43.9788 40.0867 44.013 39.51C44.0382 39.0835 44.154 38.6731 43.8258 38.295C44.0323 38.195 44.1956 38.1141 44.359 38.0346C44.3501 38.0067 44.3426 37.9773 44.3337 37.9493C44.1258 38.0155 43.9045 38.0567 43.713 38.1567C43.4917 38.2729 43.3551 38.2759 43.211 38.042C43.1397 37.9287 42.9645 37.8802 42.8041 37.8655C42.9333 38.0479 43.0907 38.217 43.1858 38.4156C43.2823 38.6157 43.3194 38.8437 43.3848 39.0643C42.8041 39.185 42.3511 38.9967 42.0244 38.5451C41.4883 37.8052 41.172 36.9696 40.8126 36.1503C40.6715 35.8282 40.5081 35.5251 40.5408 35.1309C40.5705 34.7735 40.2304 34.5749 39.9468 34.3837C39.7448 34.2483 39.5636 34.0792 39.3735 33.9262L39.4433 33.8261C39.5087 33.857 39.5725 33.8865 39.6616 33.9291C39.6616 33.5614 39.9794 33.5864 40.226 33.4908C40.2809 32.8582 40.6611 32.3831 41.0309 31.9006C41.1081 31.7991 41.1809 31.6932 41.2551 31.5902C41.5789 31.1372 41.4898 30.6679 41.0175 30.3502C40.8809 30.4561 40.7428 30.562 40.572 30.6944C40.4873 30.0486 39.9364 29.8927 39.5562 29.6191C39.6304 29.9324 39.7091 30.2561 39.7982 30.6297C39.7537 30.6106 39.7789 30.6238 39.8057 30.6326C40.2512 30.7827 40.269 30.7886 40.1339 31.2093C40.0329 31.5255 39.9453 31.8653 39.6126 32.0742C39.3898 31.8771 39.1641 31.6785 38.925 31.4682C38.879 31.5402 38.8448 31.5917 38.7973 31.6653C38.7542 31.6123 38.7275 31.5755 38.6963 31.5417C38.3829 31.2048 38.3636 30.9077 38.5285 30.4914C38.7468 29.9398 38.8567 29.3632 38.7468 28.7645C38.7334 28.6895 38.7201 28.6027 38.7438 28.5335C38.9473 27.9216 39.1879 27.32 39.3587 26.6992C39.5131 26.1343 39.8116 25.5857 39.6111 24.9546C39.5502 24.7634 39.6408 24.5266 39.6453 24.3103C39.6527 23.7999 39.6572 23.288 39.6423 22.779C39.6393 22.6922 39.5577 22.5775 39.4789 22.529C39.0527 22.2686 38.8344 21.9288 38.8508 21.4051C38.8567 21.2007 38.6428 20.9888 38.5211 20.7844C38.374 20.5387 38.1691 20.4166 37.8602 20.4416C37.6389 20.4593 37.4087 20.4166 37.186 20.3754C36.8637 20.3151 36.6751 20.1121 36.5904 19.7959C36.5711 19.7238 36.482 19.6694 36.4211 19.612C36.2875 19.4884 36.1018 19.3928 36.0246 19.2428C35.7113 18.6294 35.1395 18.2631 34.6761 17.7938C34.5677 17.6835 34.4563 17.5158 34.4534 17.3717C34.4445 16.8701 34.3301 16.4405 33.8178 16.239C33.2549 16.0198 33.0915 15.4947 32.8569 15.0357C32.6208 14.5753 32.1366 14.387 31.8322 14.009C31.2218 13.9899 30.8802 13.4883 30.402 13.2323C30.2788 13.1661 30.1228 13.1352 29.9803 13.1338C29.5927 13.1293 29.2021 13.1808 28.8189 13.1529C28.3274 13.1161 27.9546 13.5383 27.7853 13.8545C27.7407 13.9384 27.7615 14.0575 27.7541 14.1281C27.8254 14.3326 27.8907 14.5224 27.9591 14.721C27.7185 14.7004 27.4987 14.6606 27.2804 14.6651C26.5155 14.6798 25.9883 15.1917 25.4017 15.5727C25.2532 15.6683 25.1091 15.7801 24.9458 15.8404C24.8359 15.8816 24.6889 15.8742 24.5715 15.8404C24.475 15.8139 24.3651 15.6477 24.3161 15.6683C24.1498 15.7418 23.9656 15.8418 23.8661 15.9845C23.7414 16.1625 23.5988 16.1684 23.4147 16.1934C22.9676 16.2537 22.5177 16.3243 22.084 16.4405C21.689 16.5479 21.2212 16.4244 21.0949 16.1154C21.5449 16.242 21.7098 16.0625 21.5419 15.5579C21.4365 15.2417 21.2687 14.9328 21.0667 14.6651C20.936 14.4915 20.6895 14.4047 20.5053 14.2664C20.3761 14.1693 20.2618 14.0517 20.146 13.9384C20.0168 13.8104 19.892 13.678 19.7687 13.5456C19.6202 13.3868 19.4732 13.2235 19.3262 13.0631C19.347 13.0337 19.3693 13.0058 19.39 12.9764C19.6544 13.1235 19.9202 13.2647 20.1801 13.4206C20.2707 13.475 20.336 13.5662 20.4192 13.6309C20.6063 13.7751 20.7029 13.7369 20.8009 13.4706C20.5247 13.4868 20.3182 13.4294 20.2707 13.0999C20.2514 12.9616 20.1207 12.8381 19.9158 12.8822C19.491 12.9749 19.3143 12.6086 19.0767 12.385C18.9623 12.2776 19.2207 11.9364 19.4465 11.8775C19.7257 11.804 19.7732 11.7334 19.7346 11.4348C19.6692 11.4612 19.5965 11.4745 19.546 11.5171C19.2371 11.7731 18.9445 11.8967 18.5985 11.5524C18.5257 11.4804 18.3178 11.5421 18.147 11.5421C18.1381 11.8099 18.3044 11.9717 18.4663 12.1482C18.6015 12.2953 18.701 12.4748 18.8168 12.6395C18.7856 12.6733 18.7559 12.7057 18.7247 12.7395C18.649 12.7101 18.5599 12.6983 18.5005 12.6498C17.5723 11.879 16.4837 11.4245 15.3446 11.0641C15.1605 11.0052 14.9927 10.8949 14.81 10.8272C14.712 10.7919 14.5991 10.7978 14.4937 10.7861C14.3868 10.7743 14.2783 10.7625 14.1655 10.6949C14.5694 10.7699 14.8605 10.5198 15.1932 10.4065C15.2763 10.3786 15.4026 10.4345 15.4946 10.4786C15.7367 10.5978 15.9699 10.7316 16.2609 10.8184C16.2134 10.6993 16.1748 10.5757 16.1184 10.461C16.0218 10.2624 15.306 9.90494 15.0847 9.94759C14.8932 9.98437 14.7031 10.0314 14.5174 10.0888C14.2323 10.1771 14.1981 9.98878 14.1759 9.72253C13.8699 9.94024 13.5967 10.1182 13.3412 10.3198C13.1363 10.4816 12.9195 10.5272 12.6581 10.533C11.9764 10.5492 11.2963 10.6125 10.6146 10.6463C10.3503 10.6596 10.0859 10.6478 9.80968 10.6051C10.2121 10.5286 10.6042 10.4551 10.7765 10.0359C10.5983 9.77108 10.4082 9.48718 10.2374 9.23564C10.1171 9.4401 9.97898 9.67546 9.84087 9.91082C9.81117 9.91082 9.78146 9.91082 9.75028 9.91082C9.68048 9.72842 9.60919 9.54454 9.5186 9.30772C9.43841 9.42245 9.31663 9.5166 9.32703 9.59456C9.39088 10.0697 9.01367 10.3212 8.80873 10.6581C8.53844 11.1023 8.0543 11.1773 7.60877 11.3053C7.5256 11.3289 7.39491 11.2759 7.32363 11.2156C7.29244 11.1891 7.32957 11.0302 7.38155 10.9729C7.56421 10.7684 7.76025 10.5757 7.96371 10.3918C8.10776 10.2624 8.07212 10.1535 7.95331 10.0462C7.37264 9.51218 7.35185 9.46952 7.68451 8.80169C7.76173 8.64724 7.76173 8.55457 7.65184 8.4413C7.46026 8.24713 7.25383 8.06473 7.08304 7.85291C6.88256 7.60284 6.72068 7.32482 6.53356 7.06299C6.00932 6.3422 6.71622 5.65525 7.38006 5.66702C12.6997 5.76263 18.0208 5.83618 23.3404 5.89796C23.6448 5.90091 23.725 6.08184 23.7978 6.25983C23.9731 6.69671 24.123 7.14536 24.2493 7.5999C24.3607 8.00148 24.5136 8.14416 24.9295 8.16917C27.1125 8.29568 29.2942 8.43248 31.4772 8.55457C33.7584 8.68254 36.0409 8.79434 38.3235 8.9179C39.3349 8.97233 40.3462 9.05323 41.3576 9.09883C41.7066 9.11502 41.8997 9.33713 42.0541 9.57102C42.1714 9.74901 42.2219 10.0006 42.2219 10.2197C42.2219 10.5492 42.3883 10.6478 42.6749 10.6684C42.9689 10.689 43.2704 10.4595 43.315 10.1697C43.3313 10.0623 43.3551 9.95642 43.3803 9.85198C43.4961 9.3592 43.4902 8.87524 43.2511 8.4163C43.058 8.04561 43.2422 7.71463 43.4011 7.41455C43.4783 7.26893 43.759 7.24245 43.906 7.11594C44.1258 6.92913 44.2684 7.11006 44.4421 7.17184C45.0124 7.37778 45.5797 7.59548 46.1574 7.77789C46.3431 7.83673 46.5673 7.76759 46.7574 7.82055C47.2935 7.96764 47.4628 8.3398 47.1524 8.80169C46.9653 9.07971 47.0529 9.25035 47.2119 9.44452C47.5505 9.85786 47.696 10.3168 47.6856 10.8567C47.6797 11.167 47.8103 11.4804 47.8876 11.7907C47.9811 12.1688 48.0806 12.5468 48.1846 12.9234C48.4311 13.8178 48.6465 14.7239 48.939 15.6035C49.1974 16.3773 49.5405 17.1231 49.8524 17.8792C50.09 18.4543 50.2919 19.0515 50.5934 19.5943C51.3033 20.8712 52.0562 22.1244 52.8062 23.3777C53.075 23.8264 53.3839 24.25 53.675 24.6854L53.6809 24.6795L53.6824 24.6781Z" fill="#DFDACF"/>
<path d="M52.4346 51.7486C51.8227 49.9967 52.0604 48.1653 51.9282 46.3692C51.7975 44.604 51.6445 42.8374 51.6059 41.0692C51.5911 40.397 51.4782 39.7615 51.3698 39.1128C51.3327 38.8966 51.3341 38.6951 51.5732 38.4979C52.344 37.861 53.2588 37.2594 52.7242 36.0105C52.6782 35.9046 52.7405 35.7546 52.7598 35.5486C52.8712 35.6751 52.9574 35.7501 53.0138 35.8428C53.7103 37.0064 53.6806 36.871 55.0499 36.6004C55.9899 36.415 57.0755 36.1267 57.9933 36.8607C58.1448 37.6551 58.8146 38.345 58.6111 39.1878C58.4492 39.8601 58.5413 40.525 58.4567 41.184C58.2829 42.5314 58.4181 43.8847 58.3126 45.2307C58.2918 45.4896 58.3453 45.7602 57.9933 45.8382C57.9458 45.947 57.8983 46.0544 57.8493 46.1633C57.8493 46.2118 57.8493 46.2604 57.8507 46.3089C57.8166 46.3913 57.7824 46.4722 57.7483 46.5545C57.4839 46.5501 57.4097 46.7355 57.3369 46.9399C57.0042 47.8681 56.7295 48.7963 57.1869 49.7642C57.1052 50.054 56.9166 50.2438 56.633 50.3453H56.6538C56.385 50.5556 56.3642 50.966 56.0196 51.1161C54.839 51.4 53.6984 51.9178 52.4361 51.7501L52.4346 51.7486Z" fill="#BEA967"/>
</svg>
