<svg width="120" height="46" viewBox="0 0 120 46" fill="none" xmlns="http://www.w3.org/2000/svg">
<g clip-path="url(#clip0_86_116254)">
<path d="M0 15.3302C1.08 12.2402 3.35 10.9002 6.52 10.8402C6.98 10.8402 7.45 10.6902 7.91 10.6602C13.15 10.2702 18.13 9.01016 22.74 6.41016C24.78 5.26016 26.91 4.29016 29 3.25016C32.64 1.43016 36.49 0.290156 40.57 0.230156C46.93 0.140156 53.3 0.130156 59.66 0.240156C64.49 0.320156 68.91 1.91016 72.97 4.52016C77.24 7.26016 81.51 9.99016 85.82 12.6702C86.44 13.0602 87.25 13.3102 87.99 13.3402C95.54 13.6502 103.01 14.4602 110.25 16.7402C111.7 17.2002 113.13 17.7302 114.5 18.3702C118.01 20.0102 119.81 22.8502 119.95 26.7002C120.03 28.9602 120.01 31.2302 119.95 33.4902C119.85 36.6702 117.9 38.9602 115.08 39.3202C113.83 39.4802 112.93 38.9402 112.74 37.9302C112.55 36.9102 113.19 36.0802 114.46 35.8902C115.67 35.7002 116.19 34.9402 116.39 33.8602C116.45 33.5202 116.46 33.1602 116.46 32.8102C116.46 30.6702 116.46 28.5302 116.46 26.2402C115.22 26.2402 114.1 26.2602 112.98 26.2402C111.59 26.2102 110.82 25.5502 110.84 24.4502C110.86 23.3602 111.62 22.7602 113.04 22.7302C113.5 22.7302 113.95 22.7302 114.41 22.7302C114.44 22.6302 114.47 22.5302 114.51 22.4302C113.93 22.0902 113.39 21.7002 112.78 21.4302C107.98 19.3402 102.91 18.1802 97.74 17.7202C92.23 17.2302 86.68 16.9402 81.15 16.8802C69.59 16.7602 58.03 16.8402 46.48 16.8402C46.17 16.8402 45.86 16.8402 45.54 16.8402C44.05 16.8102 43.24 16.2002 43.23 15.1002C43.22 13.9902 44.04 13.3402 45.51 13.3302C46.8 13.3202 48.09 13.3302 49.38 13.3302C49.77 13.3302 50.15 13.3302 50.63 13.3302V3.82016C50.5 3.77016 50.39 3.70016 50.28 3.70016C46.03 3.82016 41.78 3.83016 37.54 4.13016C34.92 4.31016 34.93 4.51016 34.35 7.01016C33.89 9.02016 33.44 11.0302 32.95 13.2002C33.53 13.2502 34.01 13.3102 34.49 13.3202C35.54 13.3502 36.6 13.2902 37.65 13.3802C38.58 13.4602 39.14 14.0502 39.17 15.0102C39.2 15.9602 38.74 16.6802 37.8 16.7602C33.34 17.1202 29.02 16.9202 25.67 13.3102C24.77 12.3402 23.9 10.9102 22.8 10.6602C21.74 10.4202 20.4 11.4302 19.19 11.9202C15.71 13.3402 12.02 13.7102 8.34 14.1602C7.37 14.2802 6.4 14.3702 5.44 14.5302C4.11 14.7602 3.56 15.4202 3.53 16.7602C3.51 17.4502 3.53 18.1502 3.53 18.8402C5.03 19.1602 7.24 18.3502 7.2 20.7602C7.16 23.0602 5.01 22.2502 3.58 22.5302C3.58 24.5002 3.44 26.4502 3.62 28.3702C3.77 29.9702 4.88 31.0102 6.44 31.4702C8.61 32.1102 10.78 32.7102 13.1 33.3702C13.54 29.4002 15.28 26.2402 18.76 24.1902C21.04 22.8502 23.52 22.4402 26.1 22.8502C29.13 23.3302 31.55 24.8802 33.36 27.3602C35.18 29.8502 35.68 32.6802 35.33 35.7602H86.44C86.44 35.0602 86.44 34.3802 86.44 33.6902C86.5 27.5102 91.61 22.5502 97.76 22.7002C104.07 22.8502 108.98 28.0702 108.7 34.3202C108.49 39.0302 105.22 43.2102 100.71 44.5202C96.12 45.8602 91.27 44.1902 88.5 40.2602C88.01 39.5702 87.52 39.3302 86.69 39.3302C69.51 39.3502 52.33 39.3502 35.15 39.3302C34.31 39.3302 33.84 39.6202 33.35 40.2802C30.9 43.6102 27.56 45.2602 23.43 44.9002C19.01 44.5202 15.86 42.1902 14.07 38.1302C13.75 37.4002 13.34 37.0402 12.61 36.8502C10.73 36.3502 8.88 35.6802 6.98 35.2702C3.36 34.5002 0.94 32.5302 0.01 28.8702V15.2802L0 15.3302ZM79.7 13.2602C79.73 13.1902 79.75 13.1102 79.78 13.0402C77.2 11.3902 74.57 9.81016 72.04 8.08016C67.51 4.99016 62.54 3.49016 57.06 3.67016C56.15 3.70016 55.23 3.67016 54.29 3.67016V13.2502H79.7V13.2602ZM31.9 33.8502C31.9 29.6402 28.54 26.2702 24.34 26.2502C20.1 26.2302 16.65 29.6602 16.66 33.8802C16.66 38.0302 20.09 41.4702 24.25 41.5102C28.44 41.5502 31.91 38.0802 31.9 33.8502ZM97.48 26.2502C93.22 26.2802 89.89 29.7002 89.93 33.9802C89.98 38.1402 93.45 41.5602 97.6 41.5102C101.77 41.4602 105.18 38.0202 105.18 33.8602C105.18 29.6402 101.72 26.2202 97.48 26.2502ZM26.61 8.38016C27.56 9.50016 28.54 10.6602 29.61 11.9202C30.03 10.0302 30.42 8.27016 30.87 6.27016C29.16 7.12016 27.67 7.85016 26.61 8.38016Z" fill="#0C4D47"/>
<path d="M60.92 31.8603C54.64 31.8603 48.35 31.8603 42.07 31.8603C41.64 31.8603 41.2 31.8603 40.79 31.7703C39.91 31.5703 39.46 30.9303 39.48 30.0703C39.5 29.2103 39.96 28.5903 40.86 28.4303C41.28 28.3503 41.71 28.3603 42.14 28.3603C54.67 28.3603 67.2 28.3603 79.73 28.3603C81.53 28.3603 82.38 28.9203 82.4 30.0903C82.42 31.2803 81.55 31.8703 79.78 31.8703C73.5 31.8703 67.21 31.8703 60.93 31.8703L60.92 31.8603Z" fill="#0C4D47"/>
<path d="M27.38 32.1802C27.38 33.6602 24.03 37.0402 22.93 36.8802C22.39 36.8002 21.7 36.4102 21.48 35.9602C21.25 35.5002 21.28 34.6202 21.59 34.2502C22.52 33.1102 23.58 32.0502 24.72 31.1302C25.09 30.8302 25.95 30.8602 26.43 31.0802C26.91 31.3002 27.19 31.9502 27.38 32.1902V32.1802Z" fill="#0C4D47"/>
<path d="M96.27 30.79C97.34 30.82 100.6 34.11 100.6 35.17C100.6 36.51 99.12 37.48 98.06 36.67C96.81 35.7 95.66 34.55 94.71 33.3C93.92 32.26 94.94 30.76 96.27 30.8V30.79Z" fill="#0C4D47"/>
</g>
<defs>
<clipPath id="clip0_86_116254">
<rect width="120" height="44.85" fill="white" transform="translate(0 0.160156)"/>
</clipPath>
</defs>
</svg>
