<svg width="37" height="37" viewBox="0 0 37 37" fill="none" xmlns="http://www.w3.org/2000/svg">
<path d="M9.5 11.5451C9.5 10.9678 9.70271 10.4916 10.1081 10.1165C10.5135 9.7413 11.0405 9.55371 11.6892 9.55371C12.3263 9.55371 12.8417 9.7384 13.2355 10.1078C13.6409 10.4888 13.8436 10.9852 13.8436 11.597C13.8436 12.1511 13.6467 12.6129 13.2529 12.9823C12.8475 13.3632 12.3147 13.5537 11.6544 13.5537H11.6371C11 13.5537 10.4846 13.3632 10.0907 12.9823C9.69691 12.6013 9.5 12.1222 9.5 11.5451ZM9.72587 26.6966V15.1295H13.583V26.6966H9.72587ZM15.7201 26.6966H19.5772V20.2377C19.5772 19.8336 19.6236 19.5219 19.7162 19.3026C19.8784 18.9101 20.1245 18.5782 20.4546 18.307C20.7847 18.0357 21.1988 17.9 21.6969 17.9C22.9942 17.9 23.6429 18.7716 23.6429 20.5147V26.6966H27.5V20.0645C27.5 18.356 27.0946 17.0602 26.2838 16.1771C25.473 15.294 24.4015 14.8524 23.0695 14.8524C21.5753 14.8524 20.4112 15.4931 19.5772 16.7745V16.8091H19.5598L19.5772 16.7745V15.1295H15.7201C15.7432 15.4989 15.7548 16.6475 15.7548 18.5754C15.7548 20.5032 15.7432 23.2103 15.7201 26.6966Z" fill="black"/>
</svg>
