<svg width="92" height="93" viewBox="0 0 92 93" fill="none" xmlns="http://www.w3.org/2000/svg">
<g clip-path="url(#clip0_86_116229)">
<path d="M33.7825 0.570068C34.4457 0.751621 35.1168 0.885813 35.7562 1.12262C38.7879 2.24351 40.8169 4.359 41.7485 7.45329C41.9459 8.10846 42.2301 8.28212 42.8617 8.26634C44.4486 8.22687 46.0355 8.24265 47.6224 8.25844C49.1382 8.27423 49.7935 8.94519 49.8172 10.4687C49.8172 10.9738 49.8172 11.4711 49.8172 12.0789C51.8146 12.0789 53.7252 12.0474 55.6279 12.0789C58.8569 12.1421 61.4544 13.4919 63.3728 16.0968C64.6202 17.7939 65.165 19.7357 65.1729 21.8197C65.1887 25.4744 65.1729 29.1291 65.1729 32.776C65.1729 32.8944 65.1729 33.0128 65.165 33.1312C65.0545 34.2995 64.2571 35.0809 63.1991 35.0493C62.1728 35.0257 61.3833 34.26 61.3359 33.1233C61.2807 31.8051 61.3201 30.4868 61.3122 29.1686C61.3122 26.6505 61.3438 24.1404 61.2965 21.6223C61.2491 18.5675 59.1806 16.2073 56.141 15.9547C54.0962 15.781 52.0199 15.9231 49.8093 15.9231C49.8093 16.4362 49.8093 16.9335 49.8093 17.4229C49.7856 21.1566 47.4092 23.5484 43.6907 23.5484C36.2615 23.5484 28.8403 23.5484 21.4111 23.5484C17.7715 23.5484 15.3478 21.1171 15.3083 17.4624C15.3083 16.9651 15.3083 16.4678 15.3083 16.0258C12.9003 16.0258 10.5792 15.8205 8.31336 16.081C5.76328 16.3731 3.96323 18.7885 3.81323 21.5118C3.79744 21.8433 3.80533 22.167 3.80533 22.4985C3.80533 38.6409 3.80533 54.7834 3.80533 70.9179C3.80533 74.0043 5.34485 76.2461 8.01335 76.9723C8.72389 77.1617 9.48971 77.217 10.2318 77.217C18.6794 77.2328 27.1192 77.2249 35.5668 77.2249C35.8984 77.2249 36.2299 77.217 36.5536 77.2486C37.5721 77.3433 38.2668 78.0774 38.2905 79.072C38.3142 80.0587 37.6431 80.8717 36.6642 81.0138C36.3721 81.0533 36.0641 81.0375 35.7641 81.0375C27.1981 81.0375 18.6321 80.9744 10.0739 81.0612C4.46061 81.1164 0.671032 77.067 0.12628 72.9939C0.118385 72.915 0.0394352 72.8439 -0.00793457 72.7729C-0.00793457 55.2807 -0.00793457 37.7963 -0.00793457 20.3041C0.0552251 20.1383 0.134175 19.9883 0.165755 19.8147C0.568398 17.8255 1.48421 16.1126 2.96057 14.7075C4.8001 12.963 6.9949 12.0711 9.52129 12.0395C11.424 12.0158 13.3346 12.0395 15.3083 12.0395C15.3083 11.5185 15.3083 11.1001 15.3083 10.6897C15.3162 8.85046 15.9478 8.22687 17.8031 8.21897C19.5637 8.21897 21.3322 8.21897 23.1243 8.21897C23.2112 7.95059 23.2822 7.72957 23.3533 7.50855C24.2928 4.45372 26.2507 2.33034 29.2192 1.1542C29.8903 0.925281 30.585 0.775302 31.264 0.570068C32.1009 0.570068 32.9377 0.570068 33.7825 0.570068ZM45.9802 12.0711C44.3065 12.0711 42.7038 12.0711 41.0932 12.0711C38.9458 12.0711 38.4721 11.6369 38.2826 9.50563C38.0142 6.45081 35.0299 4.05115 31.9903 4.43794C29.0139 4.82472 27.1271 6.87706 26.8191 10.0661C26.6849 11.4238 26.0218 12.0474 24.6717 12.0711C24.2849 12.0711 23.8901 12.0711 23.5033 12.0711C22.0743 12.0711 20.6532 12.0711 19.1768 12.0711C19.1768 13.8392 19.1768 15.4811 19.1768 17.123C19.1768 19.1595 19.7611 19.7515 21.7901 19.7515C28.9745 19.7515 36.151 19.7515 43.3354 19.7515C43.7223 19.7515 44.117 19.7436 44.496 19.6647C45.3565 19.4832 45.925 18.9069 45.9565 18.0623C46.0276 16.0968 45.9802 14.1313 45.9802 12.0711Z" fill="#0C4D47"/>
<path d="M42.1907 67.5869C42.2459 53.8126 53.4094 42.6984 67.1545 42.7536C80.9234 42.8089 92.0474 53.9862 92.0079 67.7132C91.9684 81.4481 80.7418 92.6097 67.0282 92.5702C53.2831 92.5228 42.1433 81.3218 42.1986 67.5869H42.1907ZM88.1709 67.137C87.7209 55.1545 77.9706 46.1005 66.0335 46.582C54.5858 47.0477 45.6171 56.9148 46.0197 68.6131C46.4066 79.8773 56.3779 89.1759 67.6046 88.7339C79.3838 88.2761 88.6052 78.5906 88.1709 67.137Z" fill="#0C4D47"/>
<path d="M32.6141 31.2526C38.7248 31.2526 44.8276 31.2526 50.9383 31.2526C51.2699 31.2526 51.6015 31.2447 51.9252 31.2763C52.9121 31.371 53.6463 32.1604 53.6621 33.1234C53.6779 34.039 53.0068 34.8679 52.0831 35.0336C51.8226 35.081 51.5462 35.0731 51.2778 35.0731C38.8196 35.0731 26.3692 35.0731 13.9109 35.0731C13.5241 35.0731 13.1215 35.0494 12.7662 34.931C11.9214 34.6547 11.424 33.8259 11.5109 32.9734C11.6056 32.0735 12.3004 31.3789 13.2162 31.2842C13.5399 31.2526 13.8715 31.2605 14.2031 31.2605C20.3374 31.2605 26.4797 31.2605 32.6141 31.2605V31.2526Z" fill="#0C4D47"/>
<path d="M26.7719 46.5741C22.4296 46.5741 18.0874 46.6057 13.7531 46.5425C13.1373 46.5346 12.3636 46.2347 11.953 45.8005C10.9583 44.7586 11.6846 43.0062 13.1215 42.8009C13.4452 42.7536 13.7768 42.7694 14.1083 42.7694C22.6112 42.7694 31.1141 42.7694 39.617 42.7694C39.7354 42.7694 39.8538 42.7694 39.9801 42.7694C41.3302 42.7931 42.2144 43.5745 42.1828 44.7112C42.1513 45.8321 41.2907 46.582 39.988 46.582C35.5905 46.582 31.1852 46.582 26.7877 46.582L26.7719 46.5741Z" fill="#0C4D47"/>
<path d="M22.9665 58.0751C19.8243 58.0751 16.69 58.083 13.5478 58.0751C12.4898 58.0751 11.7161 57.4436 11.5346 56.5121C11.3688 55.6517 11.8582 54.7045 12.6951 54.4203C13.1057 54.2782 13.5715 54.2704 14.0215 54.2704C19.998 54.2625 25.9823 54.2704 31.9588 54.2704C32.1088 54.2704 32.2588 54.2704 32.4088 54.2704C33.6562 54.3098 34.4773 55.0439 34.4931 56.1411C34.5089 57.262 33.6483 58.083 32.3852 58.083C29.243 58.0988 26.1087 58.083 22.9665 58.083V58.0751Z" fill="#0C4D47"/>
<path d="M63.1755 72.4967C65.1729 70.2154 67.1387 67.9736 69.1046 65.724C71.0783 63.4743 73.0205 61.2009 75.0337 58.9907C75.4048 58.5803 75.9811 58.2329 76.518 58.1145C77.3153 57.9488 77.9785 58.3829 78.3496 59.117C78.7601 59.9222 78.6022 60.6879 78.0101 61.3588C76.5337 63.048 75.0574 64.7373 73.581 66.4265C70.7467 69.6708 67.9124 72.915 65.0703 76.1514C63.815 77.5802 62.8202 77.6039 61.4623 76.2462C59.0938 73.8781 56.7174 71.5179 54.3568 69.134C53.6305 68.3999 53.4883 67.5395 53.8989 66.7659C54.2936 66.0239 55.091 65.5898 55.9279 65.8187C56.3858 65.945 56.8516 66.2528 57.199 66.5923C58.9753 68.321 60.7201 70.0891 62.4807 71.8494C62.6939 72.0625 62.907 72.2599 63.1676 72.5046L63.1755 72.4967Z" fill="#0C4D47"/>
</g>
<defs>
<clipPath id="clip0_86_116229">
<rect width="92" height="92" fill="white" transform="translate(0 0.570068)"/>
</clipPath>
</defs>
</svg>
